<?xml version="1.0" encoding="UTF-8" standalone="no"?>
<svg
   height="16"
   viewBox="0 -960 800 640"
   width="20"
   version="1.1"
   id="svg1"
   sodipodi:docname="favicon.svg"
   inkscape:version="1.3.2 (091e20ef0f, 2023-11-25, custom)"
   xmlns:inkscape="http://www.inkscape.org/namespaces/inkscape"
   xmlns:sodipodi="http://sodipodi.sourceforge.net/DTD/sodipodi-0.dtd"
   xmlns="http://www.w3.org/2000/svg"
   xmlns:svg="http://www.w3.org/2000/svg">
  <defs
     id="defs1" />
  <sodipodi:namedview
     id="namedview1"
     pagecolor="#ffffff"
     bordercolor="#000000"
     borderopacity="0.25"
     inkscape:showpageshadow="2"
     inkscape:pageopacity="0.0"
     inkscape:pagecheckerboard="0"
     inkscape:deskcolor="#d1d1d1"
     inkscape:zoom="33.541667"
     inkscape:cx="9.9875775"
     inkscape:cy="8.0049689"
     inkscape:window-width="1920"
     inkscape:window-height="1011"
     inkscape:window-x="0"
     inkscape:window-y="0"
     inkscape:window-maximized="1"
     inkscape:current-layer="svg1" />
  <path
     d="m 400,-640 z m 320,320 H 520 q 0,-20 -1.5,-40 -1.5,-20 -4.5,-40 H 720 V -880 H 80 v 46 Q 60,-837 40,-838.5 20,-840 0,-840 v -40 Q 0,-913 23.5,-936.5 47,-960 80,-960 h 640 q 33,0 56.5,23.5 23.5,23.5 23.5,56.5 v 480 q 0,33 -23.5,56.5 Q 753,-320 720,-320 Z m -720,0 v -120 q 50,0 85,35 35,35 35,85 z m 200,0 q 0,-83 -58.5,-141.5 Q 83,-520 0,-520 v -80 q 117,0 198.5,81.5 Q 280,-437 280,-320 Z m 160,0 q 0,-75 -28.5,-140.5 -28.5,-65.5 -77,-114 -48.5,-48.5 -114,-77 Q 75,-680 0,-680 v -80 q 91,0 171,34.5 80,34.5 140,94.5 60,60 94.5,140 34.5,80 34.5,171 z"
     id="path1"
     style="fill:#ffffff;fill-opacity:1" />
</svg>
